<?xml version="1.0" standalone="no"?>
<!DOCTYPE svg PUBLIC "-//W3C//DTD SVG 20010904//EN"
 "http://www.w3.org/TR/2001/REC-SVG-20010904/DTD/svg10.dtd">
<svg version="1.0" xmlns="http://www.w3.org/2000/svg"
 width="70.000000pt" height="70.000000pt" viewBox="0 0 70.000000 70.000000"
 preserveAspectRatio="xMidYMid meet">
<metadata>
Created by potrace 1.10, written by Peter Selinger 2001-2011
</metadata>
<g transform="translate(0.000000,70.000000) scale(0.100000,-0.100000)"
fill="#000000" stroke="none">
<path d="M236 640 c-27 -11 -59 -29 -72 -41 -13 -13 -24 -19 -24 -16 0 14 -49
-25 -66 -51 -17 -27 -16 -27 16 3 l32 30 -37 -68 c-21 -37 -35 -71 -31 -74 3
-3 10 6 15 20 5 14 23 46 38 71 75 120 238 167 376 107 64 -28 60 -16 -5 14
-67 31 -169 33 -242 5z"/>
<path d="M255 608 c-105 -38 -184 -144 -186 -251 -1 -41 -3 -47 -9 -27 -16 49
-11 -13 5 -67 31 -103 112 -174 233 -203 81 -19 153 3 253 78 38 28 52 48 70
94 20 53 20 64 9 121 -6 34 -20 81 -30 103 -25 57 -84 121 -126 134 -19 6 -34
16 -34 21 0 12 -148 10 -185 -3z m203 -47 c107 -55 168 -222 118 -321 -46 -89
-125 -141 -226 -147 -57 -4 -72 -1 -120 25 -36 19 -67 45 -90 77 -30 42 -35
58 -38 117 -4 61 -1 76 27 132 34 70 79 111 145 132 53 18 133 11 184 -15z
m158 -316 c-10 -24 -21 -47 -25 -50 -5 -2 1 20 13 49 12 30 23 52 25 50 2 -2
-4 -24 -13 -49z"/>
<path d="M182 478 c-17 -17 -15 -54 4 -94 13 -27 14 -37 4 -48 -6 -8 -13 -31
-15 -50 -2 -28 2 -40 20 -54 21 -17 39 -18 156 -15 134 4 159 11 159 43 0 20
-60 70 -84 70 -9 0 -16 5 -16 10 0 6 18 10 40 10 40 0 80 28 80 57 0 20 -37
53 -60 53 -11 0 -38 7 -60 16 -31 13 -47 14 -63 6 -38 -18 -66 -20 -84 -6 -22
17 -65 18 -81 2z m203 -35 c-17 -12 -15 -13 21 -14 21 -1 51 0 67 1 23 1 27
-2 27 -24 0 -23 -4 -26 -34 -26 -28 0 -35 4 -39 23 l-4 22 -8 -22 c-5 -16 -15
-23 -33 -23 -13 0 -30 -7 -37 -17 -8 -11 -18 -14 -31 -9 -18 8 -18 8 1 16 21
9 17 10 -40 13 -23 2 -30 7 -30 22 0 17 8 20 58 23 33 2 55 7 52 13 -10 16 4
27 26 22 21 -6 21 -7 4 -20z m-135 7 c0 -5 -4 -10 -10 -10 -5 0 -10 -13 -10
-30 0 -16 -4 -30 -10 -30 -5 0 -10 14 -10 30 0 17 -4 30 -10 30 -5 0 -10 5
-10 10 0 6 14 10 30 10 17 0 30 -4 30 -10z m24 -135 c-7 -17 1 -19 102 -16 76
2 95 -10 71 -44 -14 -18 -47 -11 -47 11 0 8 -4 14 -10 14 -5 0 -10 -8 -10 -18
0 -18 -4 -18 -72 -13 -10 0 -18 8 -18 16 0 8 -4 15 -10 15 -5 0 -10 -8 -10
-18 0 -13 -7 -17 -27 -16 -48 2 -54 4 -48 15 4 6 13 8 21 5 19 -7 18 4 -3 19
-27 20 -9 45 31 45 27 0 34 -3 30 -15z"/>
<path d="M326 167 c-11 -8 -16 -20 -13 -28 4 -10 6 -9 6 4 1 12 9 17 31 17 22
0 30 -5 31 -17 0 -13 2 -14 6 -4 5 13 -21 41 -37 41 -3 0 -14 -6 -24 -13z"/>
<path d="M560 578 c0 -3 16 -29 35 -58 34 -50 55 -105 55 -145 0 -16 2 -17 9
-6 7 11 10 9 14 -10 2 -13 3 -8 1 11 -4 42 -65 169 -94 195 -11 10 -20 16 -20
13z"/>
<path d="M661 284 c-3 -43 -33 -113 -67 -152 -35 -41 -101 -88 -110 -79 -3 2
11 15 31 27 20 12 34 24 31 27 -2 3 -20 -7 -39 -21 -41 -32 -108 -56 -153 -56
-19 0 -62 11 -96 25 -34 14 -67 25 -75 25 -14 0 -99 80 -126 120 -17 25 -17
25 -3 -5 17 -36 109 -125 129 -125 7 0 37 -12 65 -26 46 -23 62 -26 130 -22
89 4 154 31 209 86 44 44 86 132 80 169 -3 19 -4 21 -6 7z"/>
</g>
</svg>
